G04 #@! TF.GenerationSoftware,KiCad,Pcbnew,9.0.4*
G04 #@! TF.CreationDate,2025-08-28T23:33:27-04:00*
G04 #@! TF.ProjectId,jlcpcb_1x1,6a6c6370-6362-45f3-9178-312e6b696361,rev?*
G04 #@! TF.SameCoordinates,Original*
G04 #@! TF.FileFunction,Paste,Top*
G04 #@! TF.FilePolarity,Positive*
%FSLAX46Y46*%
G04 Gerber Fmt 4.6, Leading zero omitted, Abs format (unit mm)*
G04 Created by KiCad (PCBNEW 9.0.4) date 2025-08-28 23:33:27*
%MOMM*%
%LPD*%
G01*
G04 APERTURE LIST*
G04 Aperture macros list*
%AMRoundRect*
0 Rectangle with rounded corners*
0 $1 Rounding radius*
0 $2 $3 $4 $5 $6 $7 $8 $9 X,Y pos of 4 corners*
0 Add a 4 corners polygon primitive as box body*
4,1,4,$2,$3,$4,$5,$6,$7,$8,$9,$2,$3,0*
0 Add four circle primitives for the rounded corners*
1,1,$1+$1,$2,$3*
1,1,$1+$1,$4,$5*
1,1,$1+$1,$6,$7*
1,1,$1+$1,$8,$9*
0 Add four rect primitives between the rounded corners*
20,1,$1+$1,$2,$3,$4,$5,0*
20,1,$1+$1,$4,$5,$6,$7,0*
20,1,$1+$1,$6,$7,$8,$9,0*
20,1,$1+$1,$8,$9,$2,$3,0*%
G04 Aperture macros list end*
%ADD10RoundRect,0.250000X-0.350000X-0.450000X0.350000X-0.450000X0.350000X0.450000X-0.350000X0.450000X0*%
%ADD11RoundRect,0.250000X0.325000X0.450000X-0.325000X0.450000X-0.325000X-0.450000X0.325000X-0.450000X0*%
%ADD12RoundRect,0.050000X-0.660000X-0.150000X0.660000X-0.150000X0.660000X0.150000X-0.660000X0.150000X0*%
%ADD13R,1.780000X1.520000*%
%ADD14RoundRect,0.160000X0.160000X-0.197500X0.160000X0.197500X-0.160000X0.197500X-0.160000X-0.197500X0*%
%ADD15R,0.750000X0.800000*%
%ADD16R,0.600000X0.800000*%
%ADD17R,0.400000X0.800000*%
%ADD18R,0.800000X0.800000*%
%ADD19RoundRect,0.160000X0.197500X0.160000X-0.197500X0.160000X-0.197500X-0.160000X0.197500X-0.160000X0*%
%ADD20RoundRect,0.250000X-0.450000X0.325000X-0.450000X-0.325000X0.450000X-0.325000X0.450000X0.325000X0*%
%ADD21RoundRect,0.250000X-0.412500X-0.650000X0.412500X-0.650000X0.412500X0.650000X-0.412500X0.650000X0*%
%ADD22RoundRect,0.250000X0.450000X-0.325000X0.450000X0.325000X-0.450000X0.325000X-0.450000X-0.325000X0*%
%ADD23R,0.400000X0.650000*%
%ADD24RoundRect,0.250000X0.350000X0.450000X-0.350000X0.450000X-0.350000X-0.450000X0.350000X-0.450000X0*%
%ADD25RoundRect,0.250000X0.450000X-0.350000X0.450000X0.350000X-0.450000X0.350000X-0.450000X-0.350000X0*%
%ADD26RoundRect,0.250000X-0.450000X0.350000X-0.450000X-0.350000X0.450000X-0.350000X0.450000X0.350000X0*%
%ADD27R,0.850000X0.300000*%
%ADD28RoundRect,0.250001X1.074999X-0.462499X1.074999X0.462499X-1.074999X0.462499X-1.074999X-0.462499X0*%
%ADD29RoundRect,0.050000X-0.285000X-0.100000X0.285000X-0.100000X0.285000X0.100000X-0.285000X0.100000X0*%
%ADD30R,0.900000X1.200000*%
%ADD31RoundRect,0.250000X-0.325000X-0.450000X0.325000X-0.450000X0.325000X0.450000X-0.325000X0.450000X0*%
%ADD32RoundRect,0.250001X-0.872499X-1.044999X0.872499X-1.044999X0.872499X1.044999X-0.872499X1.044999X0*%
%ADD33R,1.500000X2.000000*%
%ADD34RoundRect,0.250001X-1.074999X0.462499X-1.074999X-0.462499X1.074999X-0.462499X1.074999X0.462499X0*%
G04 APERTURE END LIST*
D10*
G04 #@! TO.C,R36*
X114000000Y-39500000D03*
X112000000Y-39500000D03*
G04 #@! TD*
G04 #@! TO.C,R38*
X114000000Y-33270000D03*
X112000000Y-33270000D03*
G04 #@! TD*
G04 #@! TO.C,R6*
X79000000Y-57500000D03*
X77000000Y-57500000D03*
G04 #@! TD*
G04 #@! TO.C,R39*
X114000000Y-30155000D03*
X112000000Y-30155000D03*
G04 #@! TD*
D11*
G04 #@! TO.C,C17*
X60525000Y-57000000D03*
X58475000Y-57000000D03*
G04 #@! TD*
D12*
G04 #@! TO.C,U8*
X57730000Y-71025000D03*
X57730000Y-71675000D03*
X57730000Y-72325000D03*
X57730000Y-72975000D03*
X61270000Y-72975000D03*
X61270000Y-72325000D03*
X61270000Y-71675000D03*
X61270000Y-71025000D03*
G04 #@! TD*
D13*
G04 #@! TO.C,U4*
X96040000Y-28495000D03*
X93500000Y-28495000D03*
X90960000Y-28495000D03*
X90960000Y-37505000D03*
X93500000Y-37505000D03*
X96040000Y-37505000D03*
G04 #@! TD*
D11*
G04 #@! TO.C,C18*
X60525000Y-63000000D03*
X58475000Y-63000000D03*
G04 #@! TD*
D14*
G04 #@! TO.C,R13*
X71000000Y-40000000D03*
X71000000Y-38805000D03*
G04 #@! TD*
D15*
G04 #@! TO.C,D3*
X70575000Y-105325000D03*
D16*
X71700000Y-105325000D03*
D17*
X72580000Y-105325000D03*
D18*
X73560000Y-105325000D03*
G04 #@! TD*
D19*
G04 #@! TO.C,R16*
X78597500Y-71510000D03*
X77402500Y-71510000D03*
G04 #@! TD*
D10*
G04 #@! TO.C,R7*
X79000000Y-55000000D03*
X77000000Y-55000000D03*
G04 #@! TD*
D12*
G04 #@! TO.C,U6*
X57730000Y-53025000D03*
X57730000Y-53675000D03*
X57730000Y-54325000D03*
X57730000Y-54975000D03*
X61270000Y-54975000D03*
X61270000Y-54325000D03*
X61270000Y-53675000D03*
X61270000Y-53025000D03*
G04 #@! TD*
D20*
G04 #@! TO.C,C22*
X76500000Y-100475000D03*
X76500000Y-102525000D03*
G04 #@! TD*
D10*
G04 #@! TO.C,R9*
X79000000Y-60000000D03*
X77000000Y-60000000D03*
G04 #@! TD*
G04 #@! TO.C,R37*
X114000000Y-36385000D03*
X112000000Y-36385000D03*
G04 #@! TD*
G04 #@! TO.C,R21*
X97500000Y-94000000D03*
X95500000Y-94000000D03*
G04 #@! TD*
D21*
G04 #@! TO.C,C15*
X80437500Y-28025000D03*
X83562500Y-28025000D03*
G04 #@! TD*
D22*
G04 #@! TO.C,C12*
X75000000Y-29525000D03*
X75000000Y-27475000D03*
G04 #@! TD*
D10*
G04 #@! TO.C,R1*
X79000000Y-62500000D03*
X77000000Y-62500000D03*
G04 #@! TD*
D23*
G04 #@! TO.C,U9*
X108150000Y-30550000D03*
X107500000Y-30550000D03*
X106850000Y-30550000D03*
X106850000Y-32450000D03*
X107500000Y-32450000D03*
X108150000Y-32450000D03*
G04 #@! TD*
D10*
G04 #@! TO.C,R33*
X102500000Y-39500000D03*
X100500000Y-39500000D03*
G04 #@! TD*
D11*
G04 #@! TO.C,C21*
X108525000Y-35000000D03*
X106475000Y-35000000D03*
G04 #@! TD*
D24*
G04 #@! TO.C,R8*
X77500000Y-83000000D03*
X79500000Y-83000000D03*
G04 #@! TD*
D11*
G04 #@! TO.C,C20*
X60525000Y-51000000D03*
X58475000Y-51000000D03*
G04 #@! TD*
D25*
G04 #@! TO.C,R30*
X73000000Y-27500000D03*
X73000000Y-29500000D03*
G04 #@! TD*
D26*
G04 #@! TO.C,R29*
X74900000Y-33500000D03*
X74900000Y-31500000D03*
G04 #@! TD*
D24*
G04 #@! TO.C,R18*
X93000000Y-76000000D03*
X95000000Y-76000000D03*
G04 #@! TD*
D26*
G04 #@! TO.C,R28*
X72900000Y-33500000D03*
X72900000Y-31500000D03*
G04 #@! TD*
D11*
G04 #@! TO.C,C19*
X60525000Y-69000000D03*
X58475000Y-69000000D03*
G04 #@! TD*
D10*
G04 #@! TO.C,R32*
X114000000Y-27040000D03*
X112000000Y-27040000D03*
G04 #@! TD*
G04 #@! TO.C,R22*
X97500000Y-61000000D03*
X95500000Y-61000000D03*
G04 #@! TD*
D27*
G04 #@! TO.C,IC1*
X70925000Y-101250000D03*
X70925000Y-101750000D03*
X70925000Y-102250000D03*
X70925000Y-102750000D03*
X74075000Y-102750000D03*
X74075000Y-102250000D03*
X74075000Y-101750000D03*
X74075000Y-101250000D03*
G04 #@! TD*
D24*
G04 #@! TO.C,R11*
X77500000Y-85500000D03*
X79500000Y-85500000D03*
G04 #@! TD*
D14*
G04 #@! TO.C,R14*
X72990000Y-40000000D03*
X72990000Y-38805000D03*
G04 #@! TD*
D20*
G04 #@! TO.C,C14*
X80500000Y-30975000D03*
X80500000Y-33025000D03*
G04 #@! TD*
D28*
G04 #@! TO.C,PWR1*
X80000000Y-18487500D03*
X80000000Y-15512500D03*
G04 #@! TD*
D29*
G04 #@! TO.C,U3*
X77000000Y-30025000D03*
X77000000Y-30525000D03*
X77000000Y-31025000D03*
X77000000Y-31525000D03*
X78480000Y-31525000D03*
X78480000Y-31025000D03*
X78480000Y-30525000D03*
X78480000Y-30025000D03*
G04 #@! TD*
D11*
G04 #@! TO.C,R27*
X79025000Y-25500000D03*
X76975000Y-25500000D03*
G04 #@! TD*
D10*
G04 #@! TO.C,R19*
X97500000Y-73500000D03*
X95500000Y-73500000D03*
G04 #@! TD*
D24*
G04 #@! TO.C,R23*
X103500000Y-84000000D03*
X105500000Y-84000000D03*
G04 #@! TD*
D12*
G04 #@! TO.C,U7*
X57730000Y-59025000D03*
X57730000Y-59675000D03*
X57730000Y-60325000D03*
X57730000Y-60975000D03*
X61270000Y-60975000D03*
X61270000Y-60325000D03*
X61270000Y-59675000D03*
X61270000Y-59025000D03*
G04 #@! TD*
D30*
G04 #@! TO.C,D2*
X99350000Y-28955000D03*
X102650000Y-28955000D03*
G04 #@! TD*
D31*
G04 #@! TO.C,C5*
X95475000Y-66000000D03*
X97525000Y-66000000D03*
G04 #@! TD*
D11*
G04 #@! TO.C,C3*
X79525000Y-90500000D03*
X77475000Y-90500000D03*
G04 #@! TD*
D24*
G04 #@! TO.C,R26*
X22000000Y-23500000D03*
X24000000Y-23500000D03*
G04 #@! TD*
D31*
G04 #@! TO.C,R15*
X77715000Y-69040000D03*
X79765000Y-69040000D03*
G04 #@! TD*
D24*
G04 #@! TO.C,R31*
X100500000Y-36955000D03*
X102500000Y-36955000D03*
G04 #@! TD*
D15*
G04 #@! TO.C,D4*
X76575000Y-105325000D03*
D16*
X77700000Y-105325000D03*
D17*
X78580000Y-105325000D03*
D18*
X79560000Y-105325000D03*
G04 #@! TD*
D24*
G04 #@! TO.C,R2*
X77000000Y-65000000D03*
X79000000Y-65000000D03*
G04 #@! TD*
D19*
G04 #@! TO.C,R17*
X78597500Y-73500000D03*
X77402500Y-73500000D03*
G04 #@! TD*
D32*
G04 #@! TO.C,C7*
X41894823Y-81950000D03*
D33*
X46882323Y-86000000D03*
D32*
X48309823Y-81950000D03*
G04 #@! TD*
D24*
G04 #@! TO.C,R4*
X70500000Y-66500000D03*
X72500000Y-66500000D03*
G04 #@! TD*
D25*
G04 #@! TO.C,RLED1*
X76500000Y-16500000D03*
X76500000Y-18500000D03*
G04 #@! TD*
D31*
G04 #@! TO.C,C1*
X99475000Y-22500000D03*
X101525000Y-22500000D03*
G04 #@! TD*
D10*
G04 #@! TO.C,R20*
X97500000Y-86500000D03*
X95500000Y-86500000D03*
G04 #@! TD*
G04 #@! TO.C,R10*
X79500000Y-88000000D03*
X77500000Y-88000000D03*
G04 #@! TD*
D20*
G04 #@! TO.C,C23*
X79000000Y-100475000D03*
X79000000Y-102525000D03*
G04 #@! TD*
G04 #@! TO.C,C13*
X82500000Y-30975000D03*
X82500000Y-33025000D03*
G04 #@! TD*
D11*
G04 #@! TO.C,C4*
X109525000Y-96500000D03*
X107475000Y-96500000D03*
G04 #@! TD*
D22*
G04 #@! TO.C,R12*
X68490000Y-40355000D03*
X68490000Y-38305000D03*
G04 #@! TD*
D25*
G04 #@! TO.C,R5*
X64500000Y-98000000D03*
X64500000Y-100000000D03*
G04 #@! TD*
D11*
G04 #@! TO.C,C16*
X102525000Y-34455000D03*
X100475000Y-34455000D03*
G04 #@! TD*
D32*
G04 #@! TO.C,C9*
X53894823Y-81950000D03*
D33*
X58882323Y-86000000D03*
D32*
X60309823Y-81950000D03*
G04 #@! TD*
D31*
G04 #@! TO.C,R24*
X103975000Y-58000000D03*
X106025000Y-58000000D03*
G04 #@! TD*
D24*
G04 #@! TO.C,R25*
X42000000Y-23000000D03*
X44000000Y-23000000D03*
G04 #@! TD*
D11*
G04 #@! TO.C,C2*
X75025000Y-90500000D03*
X72975000Y-90500000D03*
G04 #@! TD*
D24*
G04 #@! TO.C,RLED2*
X52500000Y-31500000D03*
X54500000Y-31500000D03*
G04 #@! TD*
D10*
G04 #@! TO.C,R35*
X108500000Y-37000000D03*
X106500000Y-37000000D03*
G04 #@! TD*
D34*
G04 #@! TO.C,PWR2*
X53500000Y-26012500D03*
X53500000Y-28987500D03*
G04 #@! TD*
D26*
G04 #@! TO.C,CC1*
X84000000Y-18500000D03*
X84000000Y-16500000D03*
G04 #@! TD*
D10*
G04 #@! TO.C,R34*
X102500000Y-31955000D03*
X100500000Y-31955000D03*
G04 #@! TD*
D26*
G04 #@! TO.C,CC2*
X86500000Y-18500000D03*
X86500000Y-16500000D03*
G04 #@! TD*
D24*
G04 #@! TO.C,R3*
X70500000Y-69000000D03*
X72500000Y-69000000D03*
G04 #@! TD*
D12*
G04 #@! TO.C,U5*
X57730000Y-65025000D03*
X57730000Y-65675000D03*
X57730000Y-66325000D03*
X57730000Y-66975000D03*
X61270000Y-66975000D03*
X61270000Y-66325000D03*
X61270000Y-65675000D03*
X61270000Y-65025000D03*
G04 #@! TD*
M02*
