M48
; DRILL file {KiCad 9.0.4} date 2025-08-28T23:33:27-0400
; FORMAT={-:-/ absolute / metric / decimal}
; #@! TF.CreationDate,2025-08-28T23:33:27-04:00
; #@! TF.GenerationSoftware,Kicad,Pcbnew,9.0.4
; #@! TF.FileFunction,NonPlated,1,8,NPTH
FMAT,2
METRIC
; #@! TA.AperFunction,NonPlated,NPTH,ComponentDrill
T1C0.500
%
G90
G05
T1
X0.357Y-7.0
X0.357Y-107.0
X1.214Y-7.0
X1.214Y-107.0
X2.071Y-7.0
X2.071Y-107.0
X2.929Y-7.0
X2.929Y-107.0
X3.786Y-7.0
X3.786Y-107.0
X4.643Y-7.0
X4.643Y-107.0
X129.357Y-7.0
X129.357Y-107.0
X130.214Y-7.0
X130.214Y-107.0
X131.071Y-7.0
X131.071Y-107.0
X131.929Y-7.0
X131.929Y-107.0
X132.786Y-7.0
X132.786Y-107.0
X133.643Y-7.0
X133.643Y-107.0
M30
