M48
; DRILL file {KiCad 8.0.7} date 2025-03-24T07:34:33-0400
; FORMAT={-:-/ absolute / inch / decimal}
; #@! TF.CreationDate,2025-03-24T07:34:33-04:00
; #@! TF.GenerationSoftware,Kicad,Pcbnew,8.0.7
; #@! TF.FileFunction,Plated,1,4,PTH
FMAT,2
INCH
; #@! TA.AperFunction,Plated,PTH,ViaDrill
T1C0.0118
; #@! TA.AperFunction,Plated,PTH,ComponentDrill
T2C0.0197
; #@! TA.AperFunction,Plated,PTH,ComponentDrill
T3C0.0276
; #@! TA.AperFunction,Plated,PTH,ComponentDrill
T4C0.0295
; #@! TA.AperFunction,Plated,PTH,ComponentDrill
T5C0.0315
; #@! TA.AperFunction,Plated,PTH,ComponentDrill
T6C0.0354
; #@! TA.AperFunction,Plated,PTH,ComponentDrill
T7C0.0362
; #@! TA.AperFunction,Plated,PTH,ComponentDrill
T8C0.0394
; #@! TA.AperFunction,Plated,PTH,ComponentDrill
T9C0.0403
; #@! TA.AperFunction,Plated,PTH,ComponentDrill
T10C0.0433
; #@! TA.AperFunction,Plated,PTH,ComponentDrill
T11C0.0591
; #@! TA.AperFunction,Plated,PTH,ComponentDrill
T12C0.0866
; #@! TA.AperFunction,Plated,PTH,ComponentDrill
T13C0.0906
%
G90
G05
T1
X4.0827Y-4.4836
X4.5Y-4.4686
X4.5079Y-4.571
X4.6024Y-4.7433
X5.0197Y-4.0269
X5.028Y-3.61
X5.2175Y-4.76
X5.6417Y-4.7993
X6.5044Y-4.8345
T2
X4.2598Y-4.2631
X4.2992Y-4.2631
X4.3386Y-4.2631
X4.378Y-4.2631
X4.5551Y-4.2631
X4.5945Y-4.2631
X4.6339Y-4.2631
X4.6732Y-4.2631
T3
X4.2031Y-4.4049
X4.4031Y-4.4049
X4.5157Y-4.4049
X4.7157Y-4.4049
X5.211Y-4.2403
X5.211Y-4.4135
X5.2268Y-5.0277
X5.2268Y-5.1222
X5.2268Y-5.2167
X5.2268Y-5.3112
X5.2268Y-5.4056
X5.411Y-4.2403
X5.411Y-4.4135
X5.4268Y-5.0277
X5.4268Y-5.1222
X5.4268Y-5.2167
X5.4268Y-5.3112
X5.4268Y-5.4056
X6.2283Y-3.8017
X6.2283Y-4.0017
X6.3524Y-3.8017
X6.3524Y-4.0017
X6.4764Y-3.8017
X6.4764Y-4.0017
T5
X3.937Y-3.937
X3.937Y-4.037
X3.937Y-4.137
X3.937Y-4.237
X3.937Y-4.337
X3.937Y-4.437
X3.937Y-4.537
X3.937Y-4.637
X3.937Y-4.737
X3.937Y-4.837
X3.937Y-4.937
X3.937Y-5.037
X3.937Y-5.137
X3.937Y-5.237
X3.937Y-5.337
X3.937Y-5.437
X3.937Y-5.537
X3.937Y-5.637
X3.937Y-5.737
X4.9369Y-5.6369
X4.9369Y-5.7369
X4.937Y-3.937
X4.937Y-4.037
X4.937Y-4.137
X4.937Y-4.237
X4.937Y-4.337
X4.937Y-4.437
X4.937Y-4.537
X4.937Y-4.637
X4.937Y-4.737
X4.937Y-4.837
X4.937Y-4.937
X4.937Y-5.037
X4.937Y-5.137
X4.937Y-5.237
X4.937Y-5.337
X4.937Y-5.437
X4.937Y-5.537
T6
X6.689Y-3.937
X6.689Y-4.0157
X6.689Y-4.0945
T7
X4.3407Y-5.2511
X4.4392Y-5.2511
X4.5179Y-5.2511
X4.6163Y-5.2511
T8
X5.8518Y-5.5818
X5.8518Y-5.6818
X5.852Y-4.3814
X5.852Y-4.4814
X5.852Y-4.5814
X5.852Y-4.6814
X5.852Y-4.7814
X5.852Y-4.8814
X5.852Y-4.9814
X5.852Y-5.0814
X5.9518Y-5.5818
X5.9518Y-5.6818
X5.952Y-4.282
X5.952Y-4.3814
X5.952Y-4.4814
X5.952Y-4.5814
X5.952Y-4.6814
X5.952Y-4.7814
X5.952Y-4.8814
X5.952Y-4.9814
X5.952Y-5.0814
X6.0518Y-5.5818
X6.0518Y-5.6818
X6.1518Y-5.5818
X6.1518Y-5.6818
X6.2518Y-5.5818
X6.2518Y-5.6818
X6.3518Y-5.5818
X6.3518Y-5.6818
X6.4518Y-5.5818
X6.4518Y-5.6818
X6.5518Y-5.5818
X6.5518Y-5.6818
X6.6518Y-5.5818
X6.6518Y-5.6818
X6.7518Y-5.5818
X6.7518Y-5.6818
X6.752Y-4.3814
X6.752Y-4.4814
X6.752Y-4.5814
X6.752Y-4.6814
X6.752Y-4.7814
X6.752Y-4.8814
X6.752Y-4.9814
X6.752Y-5.0814
T9
X4.3307Y-4.7244
X6.4961Y-4.7244
T10
X5.1091Y-3.4249
X5.1091Y-3.5249
X5.1091Y-3.6249
X5.1091Y-3.7249
X5.1091Y-3.8249
X5.1091Y-3.9249
X5.1091Y-4.0249
X5.1091Y-4.1249
X5.1091Y-4.2249
X5.1091Y-4.3249
X5.1091Y-4.4249
X5.1091Y-4.5249
X5.1091Y-4.6249
X5.1091Y-4.7249
X5.1091Y-4.8249
X5.1091Y-4.9249
X5.1091Y-5.0249
X5.1091Y-5.1249
X5.1091Y-5.2249
X5.1091Y-5.3249
X5.1091Y-5.4249
X5.1091Y-5.5249
X5.1091Y-5.6249
X5.1091Y-5.7249
X5.2091Y-5.6249
X5.5889Y-5.0769
X5.5889Y-5.1769
X5.5889Y-5.2769
X5.5889Y-5.3769
X5.5889Y-5.4769
X5.7091Y-4.0249
X5.7091Y-4.1249
X5.7091Y-4.2249
X5.7091Y-4.3249
X5.7091Y-4.4249
X5.7091Y-4.5249
X5.7091Y-4.6249
X5.7091Y-4.7249
X5.7091Y-4.8249
X5.7091Y-4.9249
X5.7091Y-5.0249
X5.7091Y-5.1249
X5.7091Y-5.2249
X5.7091Y-5.3249
X5.7091Y-5.4249
X5.7091Y-5.5249
X5.7091Y-5.6249
X5.7091Y-5.7249
X6.3976Y-3.4765
X6.3976Y-3.5749
X6.4961Y-3.4765
X6.5945Y-3.4765
X6.5945Y-3.5749
T11
X6.689Y-3.8543
X6.689Y-4.1772
T12
X5.852Y-4.182
X5.852Y-5.282
X6.752Y-5.282
T13
X4.2199Y-5.3578
X4.7329Y-5.3578
T4
G00X5.2559Y-3.6122
M15
G01X5.2559Y-3.5728
M16
G05
G00X5.2953Y-3.8917
M15
G01X5.2559Y-3.8917
M16
G05
G00X5.4134Y-3.4587
M15
G01X5.4528Y-3.4587
M16
G05
G00X5.5315Y-3.6909
M15
G01X5.5315Y-3.7303
M16
G05
G00X5.6378Y-3.7461
M15
G01X5.6378Y-3.7854
M16
G05
G00X5.7283Y-3.6122
M15
G01X5.7283Y-3.5728
M16
G05
G00X5.7677Y-3.8917
M15
G01X5.7283Y-3.8917
M16
G05
G00X5.8858Y-3.4587
M15
G01X5.9252Y-3.4587
M16
G05
G00X6.0039Y-3.6909
M15
G01X6.0039Y-3.7303
M16
G05
G00X6.1102Y-3.7461
M15
G01X6.1102Y-3.7854
M16
G05
T12
G00X6.2402Y-3.6143
M15
G01X6.2362Y-3.6143
M16
G05
G00X6.7559Y-3.6143
M15
G01X6.752Y-3.6143
M16
G05
M30
