%TF.GenerationSoftware,KiCad,Pcbnew,8.0.7*%
%TF.CreationDate,2025-03-25T15:34:17-04:00*%
%TF.ProjectId,audio_back_plane_35_rca,61756469-6f5f-4626-9163-6b5f706c616e,rev?*%
%TF.SameCoordinates,Original*%
%TF.FileFunction,Soldermask,Bot*%
%TF.FilePolarity,Negative*%
%FSLAX46Y46*%
G04 Gerber Fmt 4.6, Leading zero omitted, Abs format (unit mm)*
G04 Created by KiCad (PCBNEW 8.0.7) date 2025-03-25 15:34:17*
%MOMM*%
%LPD*%
G01*
G04 APERTURE LIST*
G04 Aperture macros list*
%AMRoundRect*
0 Rectangle with rounded corners*
0 $1 Rounding radius*
0 $2 $3 $4 $5 $6 $7 $8 $9 X,Y pos of 4 corners*
0 Add a 4 corners polygon primitive as box body*
4,1,4,$2,$3,$4,$5,$6,$7,$8,$9,$2,$3,0*
0 Add four circle primitives for the rounded corners*
1,1,$1+$1,$2,$3*
1,1,$1+$1,$4,$5*
1,1,$1+$1,$6,$7*
1,1,$1+$1,$8,$9*
0 Add four rect primitives between the rounded corners*
20,1,$1+$1,$2,$3,$4,$5,0*
20,1,$1+$1,$4,$5,$6,$7,0*
20,1,$1+$1,$6,$7,$8,$9,0*
20,1,$1+$1,$8,$9,$2,$3,0*%
G04 Aperture macros list end*
%ADD10R,0.850000X0.850000*%
%ADD11O,0.850000X0.850000*%
%ADD12RoundRect,0.102000X0.825000X0.825000X-0.825000X0.825000X-0.825000X-0.825000X0.825000X-0.825000X0*%
%ADD13C,1.854000*%
%ADD14O,3.520000X6.836000*%
%ADD15C,1.624000*%
%ADD16R,1.700000X1.700000*%
%ADD17O,1.700000X1.700000*%
%ADD18C,3.200000*%
%ADD19RoundRect,0.312500X-0.812500X-0.312500X0.812500X-0.312500X0.812500X0.312500X-0.812500X0.312500X0*%
%ADD20RoundRect,0.312500X-0.312500X0.812500X-0.312500X-0.812500X0.312500X-0.812500X0.312500X0.812500X0*%
%ADD21RoundRect,0.312500X0.812500X0.312500X-0.812500X0.312500X-0.812500X-0.312500X0.812500X-0.312500X0*%
%ADD22RoundRect,0.312500X0.312500X-0.812500X0.312500X0.812500X-0.312500X0.812500X-0.312500X-0.812500X0*%
%ADD23O,3.500000X2.200000*%
%ADD24R,2.500000X1.500000*%
%ADD25O,2.500000X1.500000*%
%ADD26C,3.316000*%
%ADD27C,1.428000*%
%ADD28R,1.428000X1.428000*%
%ADD29C,1.600000*%
%ADD30R,1.600000X1.600000*%
%ADD31O,2.000000X1.200000*%
%ADD32R,2.000000X1.200000*%
G04 APERTURE END LIST*
D10*
%TO.C,D2*%
X118000000Y-108283440D03*
D11*
X119000000Y-108283440D03*
X120000000Y-108283440D03*
X121000000Y-108283440D03*
%TD*%
D10*
%TO.C,D1*%
X106000000Y-108283440D03*
D11*
X107000000Y-108283440D03*
X108000000Y-108283440D03*
X109000000Y-108283440D03*
%TD*%
D12*
%TO.C,S1*%
X167200000Y-90803440D03*
D13*
X162200000Y-90803440D03*
X167200000Y-88303440D03*
X162200000Y-88303440D03*
X164700000Y-88303440D03*
D14*
X171250000Y-91803440D03*
X158150000Y-91803440D03*
%TD*%
D15*
%TO.C,MIC1*%
X110000000Y-120000000D03*
%TD*%
D16*
%TO.C,board_outline1*%
X171495000Y-141778440D03*
D17*
X171495000Y-144318440D03*
X168955000Y-141778440D03*
X168955000Y-144318440D03*
X166415000Y-141778440D03*
X166415000Y-144318440D03*
X163875000Y-141778440D03*
X163875000Y-144318440D03*
X161335000Y-141778440D03*
X161335000Y-144318440D03*
X158795000Y-141778440D03*
X158795000Y-144318440D03*
X156255000Y-141778440D03*
X156255000Y-144318440D03*
X153715000Y-141778440D03*
X153715000Y-144318440D03*
X151175000Y-141778440D03*
X151175000Y-144318440D03*
X148635000Y-141778440D03*
X148635000Y-144318440D03*
D16*
X151180000Y-129068440D03*
X148640000Y-129068440D03*
D17*
X151180000Y-126528440D03*
X148640000Y-126528440D03*
X151180000Y-123988440D03*
X148640000Y-123988440D03*
X151180000Y-121448440D03*
X148640000Y-121448440D03*
X151180000Y-118908440D03*
X148640000Y-118908440D03*
X151180000Y-116368440D03*
X148640000Y-116368440D03*
X151180000Y-113828440D03*
X148640000Y-113828440D03*
X151180000Y-111288440D03*
X148640000Y-111288440D03*
D16*
X171500000Y-129068440D03*
D17*
X171500000Y-126528440D03*
X171500000Y-123988440D03*
X171500000Y-121448440D03*
X171500000Y-118908440D03*
X171500000Y-116368440D03*
X171500000Y-113828440D03*
X171500000Y-111288440D03*
X151180000Y-108763440D03*
D18*
X148640000Y-134163440D03*
X148640000Y-106223440D03*
X171500000Y-134163440D03*
%TD*%
D19*
%TO.C,HPTRS1*%
X138000000Y-87850000D03*
D20*
X143200000Y-95650000D03*
X140500000Y-94250000D03*
D21*
X134000000Y-98850000D03*
D22*
X133500000Y-91250000D03*
%TD*%
D23*
%TO.C,SW3*%
X169900000Y-106100000D03*
X169900000Y-97900000D03*
D24*
X169900000Y-104000000D03*
D25*
X169900000Y-102000000D03*
X169900000Y-100000000D03*
%TD*%
D26*
%TO.C,USBA1*%
X119215000Y-136140000D03*
X106185000Y-136140000D03*
D27*
X116255000Y-133430000D03*
X113755000Y-133430000D03*
X111755000Y-133430000D03*
D28*
X109255000Y-133430000D03*
%TD*%
D29*
%TO.C,U3*%
X141969200Y-128954240D03*
X141969200Y-131494240D03*
X141969200Y-134034240D03*
X141969200Y-136574240D03*
D30*
X141969200Y-139114240D03*
D29*
X132320000Y-142873440D03*
X129780000Y-145413440D03*
X129780000Y-142873440D03*
X129780000Y-140333440D03*
X129780000Y-137793440D03*
X129780000Y-135253440D03*
X129780000Y-132713440D03*
X129780000Y-130173440D03*
X129780000Y-127633440D03*
X129780000Y-125093440D03*
X129780000Y-122553440D03*
X129780000Y-120013440D03*
X129780000Y-117473440D03*
X129780000Y-114933440D03*
X129780000Y-112393440D03*
X129780000Y-109853440D03*
X129780000Y-107313440D03*
X129780000Y-104773440D03*
X129780000Y-102233440D03*
X129780000Y-99693440D03*
X129780000Y-97153440D03*
X129780000Y-94613440D03*
X129780000Y-92073440D03*
X129780000Y-89533440D03*
X129780000Y-86993440D03*
X145020000Y-102233440D03*
X145020000Y-104773440D03*
X145020000Y-107313440D03*
X145020000Y-109853440D03*
X145020000Y-112393440D03*
X145020000Y-114933440D03*
X145020000Y-117473440D03*
X145020000Y-120013440D03*
X145020000Y-122553440D03*
X145020000Y-125093440D03*
X145020000Y-127633440D03*
X145020000Y-130173440D03*
X145020000Y-132713440D03*
X145020000Y-135253440D03*
X145020000Y-137793440D03*
X145020000Y-140333440D03*
X145020000Y-142873440D03*
D30*
X145020000Y-145413440D03*
%TD*%
D15*
%TO.C,MIC2*%
X165000000Y-120000000D03*
%TD*%
D19*
%TO.C,HPTRS2*%
X150000000Y-87850000D03*
D20*
X155200000Y-95650000D03*
X152500000Y-94250000D03*
D21*
X146000000Y-98850000D03*
D22*
X145500000Y-91250000D03*
%TD*%
D31*
%TO.C,U1*%
X125400000Y-99870000D03*
X125400000Y-102410000D03*
X125400000Y-104950000D03*
X125400000Y-107490000D03*
X125400000Y-110030000D03*
X125400000Y-112570000D03*
X125400000Y-115110000D03*
X125400000Y-117650000D03*
X125400000Y-120190000D03*
X125400000Y-122730000D03*
X125400000Y-125270000D03*
X125400000Y-127810000D03*
X125400000Y-130350000D03*
X125400000Y-132890000D03*
X125400000Y-135430000D03*
X125400000Y-137970000D03*
X125400000Y-140510000D03*
X125396320Y-143047280D03*
X125396320Y-145587280D03*
X100000000Y-145590000D03*
X100000000Y-143050000D03*
X100000000Y-140510000D03*
X100000000Y-137970000D03*
X100000000Y-135430000D03*
X100000000Y-132890000D03*
X100000000Y-130350000D03*
X100000000Y-127810000D03*
X100000000Y-125270000D03*
X100000000Y-122730000D03*
X100000000Y-120190000D03*
X100000000Y-117650000D03*
X100000000Y-115110000D03*
X100000000Y-112570000D03*
X100000000Y-110030000D03*
X100000000Y-107490000D03*
X100000000Y-104950000D03*
X100000000Y-102410000D03*
D32*
X100000000Y-99870000D03*
%TD*%
M02*
