M48
; DRILL file {KiCad 8.0.7} date 2025-03-25T15:34:24-0400
; FORMAT={-:-/ absolute / inch / decimal}
; #@! TF.CreationDate,2025-03-25T15:34:24-04:00
; #@! TF.GenerationSoftware,Kicad,Pcbnew,8.0.7
; #@! TF.FileFunction,Plated,1,4,PTH
FMAT,2
INCH
; #@! TA.AperFunction,Plated,PTH,ViaDrill
T1C0.0118
; #@! TA.AperFunction,Plated,PTH,ComponentDrill
T2C0.0197
; #@! TA.AperFunction,Plated,PTH,ComponentDrill
T3C0.0295
; #@! TA.AperFunction,Plated,PTH,ComponentDrill
T4C0.0315
; #@! TA.AperFunction,Plated,PTH,ComponentDrill
T5C0.0354
; #@! TA.AperFunction,Plated,PTH,ComponentDrill
T6C0.0362
; #@! TA.AperFunction,Plated,PTH,ComponentDrill
T7C0.0394
; #@! TA.AperFunction,Plated,PTH,ComponentDrill
T8C0.0403
; #@! TA.AperFunction,Plated,PTH,ComponentDrill
T9C0.0433
; #@! TA.AperFunction,Plated,PTH,ComponentDrill
T10C0.0591
; #@! TA.AperFunction,Plated,PTH,ComponentDrill
T11C0.0866
; #@! TA.AperFunction,Plated,PTH,ComponentDrill
T12C0.0906
%
G90
G05
T1
X4.0827Y-5.7356
X4.0945Y-3.9836
X4.0984Y-4.2867
X4.1142Y-4.2011
X4.1732Y-4.4442
X4.2008Y-4.7198
X4.2165Y-4.9324
X4.2343Y-3.961
X4.2785Y-3.961
X4.2913Y-4.3645
X4.2953Y-5.523
X4.3819Y-4.4442
X4.3898Y-3.9639
X4.439Y-4.2493
X4.5Y-4.4686
X4.5079Y-4.571
X4.5394Y-5.4206
X4.5709Y-4.5702
X4.5732Y-4.9245
X4.5768Y-4.4442
X4.5866Y-4.1509
X4.6102Y-5.6411
X4.6463Y-4.0393
X4.6654Y-4.3645
X4.6732Y-4.6253
X4.7126Y-4.8379
X4.7165Y-3.961
X4.7608Y-3.961
X4.7835Y-5.523
X4.7992Y-4.9482
X4.8622Y-4.2789
X5.0039Y-4.9797
X5.0276Y-5.523
X5.0295Y-4.0246
X5.0354Y-5.397
X5.0512Y-5.1844
X5.0591Y-3.4816
X5.1929Y-5.0899
X5.2008Y-5.5151
X5.2175Y-4.76
X5.2244Y-5.2631
X5.248Y-5.3104
X5.248Y-5.2159
X5.2638Y-4.0919
X5.2717Y-4.1371
X5.3268Y-5.3104
X5.3268Y-5.2159
X5.3504Y-4.1371
X5.374Y-5.1844
X5.374Y-5.6411
X5.3763Y-3.7491
X5.3898Y-3.6411
X5.4055Y-5.145
X5.4213Y-4.019
X5.4213Y-5.4521
X5.4449Y-5.1923
X5.4449Y-5.3576
X5.4528Y-5.0978
X5.4685Y-4.7356
X5.4764Y-4.8301
X5.4843Y-4.6411
X5.4921Y-3.9088
X5.5Y-4.5072
X5.5394Y-4.1765
X5.5472Y-4.4442
X5.6417Y-4.7993
X5.878Y-4.0033
X5.9252Y-5.4364
X5.9488Y-5.3419
X6.0276Y-5.3104
X6.0354Y-4.4127
X6.0354Y-5.0269
X6.0542Y-3.8822
X6.0591Y-3.586
X6.122Y-5.3025
X6.2283Y-3.8379
X6.2283Y-3.9167
X6.2795Y-4.208
X6.2795Y-4.7356
X6.2953Y-3.8301
X6.3425Y-5.2867
X6.3449Y-4.6662
X6.3524Y-3.8379
X6.3583Y-4.46
X6.4764Y-3.8379
X6.4764Y-5.4364
X6.5157Y-5.145
X6.5394Y-4.2867
X6.5628Y-4.8841
T2
X4.1732Y-4.2631
X4.2126Y-4.2631
X4.252Y-4.2631
X4.2913Y-4.2631
X4.6457Y-4.2631
X4.685Y-4.2631
X4.7244Y-4.2631
X4.7638Y-4.2631
T4
X3.937Y-3.9319
X3.937Y-4.0319
X3.937Y-4.1319
X3.937Y-4.2319
X3.937Y-4.3319
X3.937Y-4.4319
X3.937Y-4.5319
X3.937Y-4.6319
X3.937Y-4.7319
X3.937Y-4.8319
X3.937Y-4.9319
X3.937Y-5.0319
X3.937Y-5.1319
X3.937Y-5.2319
X3.937Y-5.3319
X3.937Y-5.4319
X3.937Y-5.5319
X3.937Y-5.6319
X3.937Y-5.7319
X4.9369Y-5.6318
X4.9369Y-5.7318
X4.937Y-3.9319
X4.937Y-4.0319
X4.937Y-4.1319
X4.937Y-4.2319
X4.937Y-4.3319
X4.937Y-4.4319
X4.937Y-4.5319
X4.937Y-4.6319
X4.937Y-4.7319
X4.937Y-4.8319
X4.937Y-4.9319
X4.937Y-5.0319
X4.937Y-5.1319
X4.937Y-5.2319
X4.937Y-5.3319
X4.937Y-5.4319
X4.937Y-5.5319
T5
X6.689Y-3.937
X6.689Y-4.0157
X6.689Y-4.0945
T6
X4.3014Y-5.2531
X4.3998Y-5.2531
X4.4785Y-5.2531
X4.577Y-5.2531
T7
X5.8518Y-5.5818
X5.8518Y-5.6818
X5.852Y-4.3814
X5.852Y-4.4814
X5.852Y-4.5814
X5.852Y-4.6814
X5.852Y-4.7814
X5.852Y-4.8814
X5.852Y-4.9814
X5.852Y-5.0814
X5.9518Y-5.5818
X5.9518Y-5.6818
X5.952Y-4.282
X5.952Y-4.3814
X5.952Y-4.4814
X5.952Y-4.5814
X5.952Y-4.6814
X5.952Y-4.7814
X5.952Y-4.8814
X5.952Y-4.9814
X5.952Y-5.0814
X6.0518Y-5.5818
X6.0518Y-5.6818
X6.1518Y-5.5818
X6.1518Y-5.6818
X6.2518Y-5.5818
X6.2518Y-5.6818
X6.3518Y-5.5818
X6.3518Y-5.6818
X6.4518Y-5.5818
X6.4518Y-5.6818
X6.5518Y-5.5818
X6.5518Y-5.6818
X6.6518Y-5.5818
X6.6518Y-5.6818
X6.7518Y-5.5818
X6.7518Y-5.6818
X6.752Y-4.3814
X6.752Y-4.4814
X6.752Y-4.5814
X6.752Y-4.6814
X6.752Y-4.7814
X6.752Y-4.8814
X6.752Y-4.9814
X6.752Y-5.0814
T8
X4.3307Y-4.7244
X6.4961Y-4.7244
T9
X5.1094Y-3.4249
X5.1094Y-3.5249
X5.1094Y-3.6249
X5.1094Y-3.7249
X5.1094Y-3.8249
X5.1094Y-3.9249
X5.1094Y-4.0249
X5.1094Y-4.1249
X5.1094Y-4.2249
X5.1094Y-4.3249
X5.1094Y-4.4249
X5.1094Y-4.5249
X5.1094Y-4.6249
X5.1094Y-4.7249
X5.1094Y-4.8249
X5.1094Y-4.9249
X5.1094Y-5.0249
X5.1094Y-5.1249
X5.1094Y-5.2249
X5.1094Y-5.3249
X5.1094Y-5.4249
X5.1094Y-5.5249
X5.1094Y-5.6249
X5.1094Y-5.7249
X5.2094Y-5.6249
X5.5893Y-5.0769
X5.5893Y-5.1769
X5.5893Y-5.2769
X5.5893Y-5.3769
X5.5893Y-5.4769
X5.7094Y-4.0249
X5.7094Y-4.1249
X5.7094Y-4.2249
X5.7094Y-4.3249
X5.7094Y-4.4249
X5.7094Y-4.5249
X5.7094Y-4.6249
X5.7094Y-4.7249
X5.7094Y-4.8249
X5.7094Y-4.9249
X5.7094Y-5.0249
X5.7094Y-5.1249
X5.7094Y-5.2249
X5.7094Y-5.3249
X5.7094Y-5.4249
X5.7094Y-5.5249
X5.7094Y-5.6249
X5.7094Y-5.7249
X6.3858Y-3.4765
X6.3858Y-3.5749
X6.4843Y-3.4765
X6.5827Y-3.4765
X6.5827Y-3.5749
T10
X6.689Y-3.8543
X6.689Y-4.1772
T11
X5.852Y-4.182
X5.852Y-5.282
X6.752Y-5.282
T12
X4.1805Y-5.3598
X4.6935Y-5.3598
T3
G00X5.2559Y-3.6122
M15
G01X5.2559Y-3.5728
M16
G05
G00X5.2953Y-3.8917
M15
G01X5.2559Y-3.8917
M16
G05
G00X5.4134Y-3.4587
M15
G01X5.4528Y-3.4587
M16
G05
G00X5.5315Y-3.6909
M15
G01X5.5315Y-3.7303
M16
G05
G00X5.6378Y-3.7461
M15
G01X5.6378Y-3.7854
M16
G05
G00X5.7283Y-3.6122
M15
G01X5.7283Y-3.5728
M16
G05
G00X5.7677Y-3.8917
M15
G01X5.7283Y-3.8917
M16
G05
G00X5.8858Y-3.4587
M15
G01X5.9252Y-3.4587
M16
G05
G00X6.0039Y-3.6909
M15
G01X6.0039Y-3.7303
M16
G05
G00X6.1102Y-3.7461
M15
G01X6.1102Y-3.7854
M16
G05
T11
G00X6.2283Y-3.6143
M15
G01X6.2244Y-3.6143
M16
G05
G00X6.7441Y-3.6143
M15
G01X6.7402Y-3.6143
M16
G05
M30
